# xmcd
#
# Track frame offsets:
#       150
#       13106
#       29044
#       49480
#       66334
#       82924
#       97032
#       115372
#       134348
#       150066
#       166509
#       183412
#       198564
#       212797
#       232557
#       247476
#       263559
#       280047
#       295097
#       307712
#       321005
#
# Disc length: 4573 seconds
#
# Revision: 0
# Processed by: cddbd v1.5.1PL2 Copyright (c) Steve Scherf et al.
# Submitted via: WaveLab 4.01
#
DISCID=2011db15
DTITLE=Olivia Newton John - Best of
DYEAR=1900
DGENRE=
TTITLE0=Titel 01
TTITLE1=Titel 02
TTITLE2=Titel 03
TTITLE3=Titel 04
TTITLE4=Titel 05
TTITLE5=Titel 06
TTITLE6=Titel 07
TTITLE7=Titel 08
TTITLE8=Titel 09
TTITLE9=Titel 10
TTITLE10=Titel 11
TTITLE11=Titel 12
TTITLE12=Titel 13
TTITLE13=Titel 14
TTITLE14=Titel 15
TTITLE15=Titel 16
TTITLE16=Titel 17
TTITLE17=Titel 18
TTITLE18=Titel 19
TTITLE19=Titel 20
TTITLE20=Titel 21
EXTD=
EXTT0=
EXTT1=
EXTT2=
EXTT3=
EXTT4=
EXTT5=
EXTT6=
EXTT7=
EXTT8=
EXTT9=
EXTT10=
EXTT11=
EXTT12=
EXTT13=
EXTT14=
EXTT15=
EXTT16=
EXTT17=
EXTT18=
EXTT19=
EXTT20=
PLAYORDER=
